#define screen_size_small_width 12
#define screen_size_small_height 12
static unsigned char screen_size_small_bits[] = {
   0xfc, 0x0f, 0x04, 0x08, 0xff, 0x0b, 0x05, 0x0a, 0x05, 0x0a, 0x05, 0x0a,
   0x05, 0x0a, 0x05, 0x0a, 0x05, 0x0a, 0xfd, 0x0f, 0x01, 0x02, 0xff, 0x03 };
