#define toolbar_icon_width 12
#define toolbar_icon_height 12
static unsigned char toolbar_icon_bits[] = {
   0x98, 0x01, 0x9c, 0x03, 0x0e, 0x07, 0x9f, 0x0f, 0xfb, 0x0d, 0xf0, 0x00,
   0xf0, 0x00, 0xf8, 0x01, 0x9c, 0x03, 0x0e, 0x07, 0x07, 0x0e, 0x03, 0x0c };
