#define infantry_width 16
#define infantry_height 16
static unsigned char infantry_bits[] = {
   0x00, 0x00, 0x00, 0x00, 0x00, 0x00, 0x80, 0x01, 0x80, 0x01, 0x80, 0x00,
   0xc0, 0x7f, 0xc0, 0x05, 0xc0, 0x05, 0xc0, 0x01, 0x80, 0x00, 0x40, 0x01,
   0x40, 0x01, 0x40, 0x01, 0x40, 0x01, 0x40, 0x01 };
