#define ground_width 16
#define ground_height 16
static unsigned char ground_bits[] = {
   0x48, 0xe4, 0x4a, 0x85, 0x3a, 0x69, 0x09, 0x51, 0x65, 0xa4, 0x36, 0x22,
   0x58, 0xb0, 0x12, 0xb8, 0x56, 0x04, 0x94, 0x4e, 0x80, 0x52, 0x24, 0x50,
   0x2b, 0x26, 0xb9, 0x8f, 0x94, 0x63, 0xc4, 0x14 };
